<mxfile host="app.diagrams.net" agent="Mozilla/5.0 (Windows NT 10.0; Win64; x64) AppleWebKit/537.36 (KHTML, like Gecko) Chrome/131.0.0.0 Safari/537.36" version="25.0.3">
  <diagram name="Página-1" id="0jqQyR3BkeYPv3uO4pxz">
    <mxGraphModel dx="683" dy="371" grid="1" gridSize="10" guides="1" tooltips="1" connect="1" arrows="1" fold="1" page="1" pageScale="1" pageWidth="827" pageHeight="1169" math="0" shadow="0">
      <root>
        <mxCell id="0" />
        <mxCell id="1" parent="0" />
        <mxCell id="T5ulzZtQjw_UegX-ejaX-1" value="" style="image;html=1;image=img/lib/clip_art/people/Suit_Man_Blue_128x128.png" vertex="1" parent="1">
          <mxGeometry x="120" y="360" width="80" height="80" as="geometry" />
        </mxCell>
        <mxCell id="T5ulzZtQjw_UegX-ejaX-2" value="Usuario" style="rounded=1;whiteSpace=wrap;html=1;" vertex="1" parent="1">
          <mxGeometry x="135" y="440" width="50" height="20" as="geometry" />
        </mxCell>
        <mxCell id="T5ulzZtQjw_UegX-ejaX-3" value="Eliminar usuario" style="shape=umlBoundary;whiteSpace=wrap;html=1;" vertex="1" parent="1">
          <mxGeometry x="320" y="360" width="100" height="80" as="geometry" />
        </mxCell>
        <mxCell id="T5ulzZtQjw_UegX-ejaX-6" value="Ingresa al sistema" style="html=1;verticalAlign=bottom;endArrow=block;curved=0;rounded=0;entryX=0;entryY=0.5;entryDx=0;entryDy=0;entryPerimeter=0;" edge="1" parent="1" target="T5ulzZtQjw_UegX-ejaX-3">
          <mxGeometry width="80" relative="1" as="geometry">
            <mxPoint x="185" y="399.76" as="sourcePoint" />
            <mxPoint x="265" y="399.76" as="targetPoint" />
          </mxGeometry>
        </mxCell>
        <mxCell id="T5ulzZtQjw_UegX-ejaX-7" value="Confirmación de identidad" style="ellipse;shape=umlControl;whiteSpace=wrap;html=1;" vertex="1" parent="1">
          <mxGeometry x="530" y="350" width="80" height="90" as="geometry" />
        </mxCell>
        <mxCell id="T5ulzZtQjw_UegX-ejaX-8" value="Digita sus datos" style="html=1;verticalAlign=bottom;endArrow=block;curved=0;rounded=0;" edge="1" parent="1">
          <mxGeometry width="80" relative="1" as="geometry">
            <mxPoint x="421" y="400" as="sourcePoint" />
            <mxPoint x="530" y="400" as="targetPoint" />
          </mxGeometry>
        </mxCell>
        <mxCell id="T5ulzZtQjw_UegX-ejaX-10" value="Confirma acción de eliminar" style="html=1;verticalAlign=bottom;endArrow=block;curved=0;rounded=0;exitX=0.468;exitY=1.005;exitDx=0;exitDy=0;exitPerimeter=0;" edge="1" parent="1" source="T5ulzZtQjw_UegX-ejaX-7">
          <mxGeometry width="80" relative="1" as="geometry">
            <mxPoint x="370" y="500" as="sourcePoint" />
            <mxPoint x="440" y="520" as="targetPoint" />
            <Array as="points">
              <mxPoint x="567" y="520" />
            </Array>
          </mxGeometry>
        </mxCell>
        <mxCell id="T5ulzZtQjw_UegX-ejaX-12" value="Elimina usuario de la base de datos" style="ellipse;shape=umlEntity;whiteSpace=wrap;html=1;" vertex="1" parent="1">
          <mxGeometry x="350" y="470" width="90" height="90" as="geometry" />
        </mxCell>
        <mxCell id="T5ulzZtQjw_UegX-ejaX-13" value="Mensaje de eliminacion" style="html=1;verticalAlign=bottom;endArrow=block;curved=0;rounded=0;exitX=0;exitY=0.556;exitDx=0;exitDy=0;exitPerimeter=0;" edge="1" parent="1" source="T5ulzZtQjw_UegX-ejaX-12">
          <mxGeometry width="80" relative="1" as="geometry">
            <mxPoint x="250" y="514.76" as="sourcePoint" />
            <mxPoint x="160" y="470" as="targetPoint" />
            <Array as="points">
              <mxPoint x="160" y="520" />
            </Array>
          </mxGeometry>
        </mxCell>
      </root>
    </mxGraphModel>
  </diagram>
</mxfile>
